<svg width="186" height="40" viewBox="0 0 186 40" fill="none" xmlns="http://www.w3.org/2000/svg">
  <rect width="40" height="40" rx="13" fill="url(#paint0_linear)"/>
  <path d="M11.5 20C11.5 15.3056 15.3056 11.5 20 11.5C24.6944 11.5 28.5 15.3056 28.5 20C28.5 24.6944 24.6944 28.5 20 28.5C15.3056 28.5 11.5 24.6944 11.5 20Z" stroke="white" stroke-width="2"/>
  <path d="M16 20C16 17.7909 17.7909 16 20 16C22.2091 16 24 17.7909 24 20C24 22.2091 22.2091 24 20 24" stroke="white" stroke-width="2" stroke-linecap="round"/>
  <path d="M53.152 27V13.032H61.312C64.48 13.032 66.304 14.616 66.304 17.4C66.304 19.392 65.272 20.784 63.544 21.336C65.728 21.768 66.976 23.304 66.976 25.584C66.976 28.56 64.936 30.216 61.408 30.216H53.152V27ZM57.04 19.056H60.712C61.984 19.056 62.704 18.432 62.704 17.4C62.704 16.344 61.984 15.768 60.712 15.768H57.04V19.056ZM57.04 27.48H60.976C62.44 27.48 63.256 26.76 63.256 25.512C63.256 24.264 62.416 23.496 60.976 23.496H57.04V27.48ZM74.3005 30.216C70.6765 30.216 68.0845 27.552 68.0845 23.712C68.0845 19.872 70.6765 17.184 74.3005 17.184C77.9005 17.184 80.4925 19.872 80.4925 23.712C80.4925 27.552 77.9005 30.216 74.3005 30.216ZM74.3005 27.384C75.7885 27.384 76.9165 25.992 76.9165 23.712C76.9165 21.432 75.7885 20.016 74.3005 20.016C72.7885 20.016 71.6605 21.432 71.6605 23.712C71.6605 25.992 72.7885 27.384 74.3005 27.384ZM88.4528 30.216C84.8288 30.216 82.2368 27.552 82.2368 23.712C82.2368 19.872 84.8288 17.184 88.4528 17.184C92.0528 17.184 94.6448 19.872 94.6448 23.712C94.6448 27.552 92.0528 30.216 88.4528 30.216ZM88.4528 27.384C89.9408 27.384 91.0688 25.992 91.0688 23.712C91.0688 21.432 89.9408 20.016 88.4528 20.016C86.9408 20.016 85.8128 21.432 85.8128 23.712C85.8128 25.992 86.9408 27.384 88.4528 27.384ZM96.9543 30V13.032H100.458V22.632L104.898 17.4H109.098L104.418 22.656L109.41 30H105.378L102.018 24.72L100.458 26.472V30H96.9543ZM120.613 30.216C116.701 30.216 113.821 27.216 113.821 23.232C113.821 19.248 116.701 16.248 120.613 16.248C123.805 16.248 126.373 18.096 127.285 20.904H123.181C122.605 19.728 121.525 19.056 120.229 19.056C118.237 19.056 116.965 20.688 116.965 23.232C116.965 25.776 118.237 27.408 120.229 27.408C121.573 27.408 122.605 26.736 123.181 25.56H127.285C126.373 28.344 123.805 30.216 120.613 30.216ZM134.223 30.216C130.599 30.216 128.007 27.552 128.007 23.712C128.007 19.872 130.599 17.184 134.223 17.184C137.823 17.184 140.415 19.872 140.415 23.712C140.415 27.552 137.823 30.216 134.223 30.216ZM134.223 27.384C135.711 27.384 136.839 25.992 136.839 23.712C136.839 21.432 135.711 20.016 134.223 20.016C132.711 20.016 131.583 21.432 131.583 23.712C131.583 25.992 132.711 27.384 134.223 27.384Z" fill="white"/>
  <defs>
    <linearGradient id="paint0_linear" x1="4" y1="4" x2="35" y2="36" gradientUnits="userSpaceOnUse">
      <stop stop-color="#6366F1"/>
      <stop offset="0.5" stop-color="#A855F7"/>
      <stop offset="1" stop-color="#FCD34D"/>
    </linearGradient>
  </defs>
</svg>
